Newsreader72pt-ExtraLightItalic.ufo
<glyph name="parenright" format="2">
  <advance width="494"/>
  <unicode hex="0029"/>
  <outline>
    <contour>
      <point x="-162.0" y="-210.0" type="curve"/>
      <point x="-143.0" y="-228.0" type="line"/>
      <point x="356.0" y="286.0"/>
      <point x="476.0" y="536.0"/>
      <point x="476.0" y="907.0" type="curve" smooth="yes"/>
      <point x="476.0" y="1091.0"/>
      <point x="433.0" y="1255.0"/>
      <point x="370.0" y="1450.0" type="curve"/>
      <point x="347.0" y="1442.0" type="line"/>
      <point x="395.0" y="1278.0"/>
      <point x="417.0" y="1131.0"/>
      <point x="417.0" y="930.0" type="curve" smooth="yes"/>
      <point x="417.0" y="644.0"/>
      <point x="318.0" y="314.0"/>
    </contour>
  </outline>
</glyph>
<glyph name="less" format="2">
  <advance width="1150"/>
  <unicode hex="003C"/>
  <outline>
    <contour>
      <point x="168.0" y="498.0" type="line"/>
      <point x="1083.0" y="853.0" type="line"/>
      <point x="1100.0" y="909.0" type="line"/>
      <point x="150.0" y="536.0" type="line"/>
      <point x="136.0" y="488.0" type="line"/>
      <point x="858.0" y="115.0" type="line"/>
      <point x="871.0" y="161.0" type="line"/>
      <point x="176.0" y="522.0" type="line"/>
    </contour>
  </outline>
</glyph>
<glyph name="K" format="2">
  <advance width="1305"/>
  <unicode hex="004B"/>
  <anchor x="920.0" y="1430" name="UCtop"/>
  <anchor x="532.0" y="0" name="bottom"/>
  <outline>
    <contour>
      <point x="1006.0" y="36.0" type="line"/>
      <point x="575.0" y="776.0" type="line"/>
      <point x="532.0" y="728.0" type="line"/>
      <point x="1337.0" y="1391.0" type="line"/>
      <point x="1519.0" y="1416.0" type="line"/>
      <point x="1524.0" y="1430.0" type="line"/>
      <point x="1133.0" y="1430.0" type="line"/>
      <point x="1129.0" y="1416.0" type="line"/>
      <point x="1295.0" y="1391.0" type="line"/>
      <point x="531.0" y="762.0" type="line"/>
      <point x="373.0" y="762.0" type="line"/>
      <point x="364.0" y="734.0" type="line"/>
      <point x="518.0" y="734.0" type="line"/>
      <point x="920.0" y="36.0" type="line"/>
      <point x="743.0" y="12.0" type="line"/>
      <point x="739.0" y="0.0" type="line"/>
      <point x="1176.0" y="0.0" type="line"/>
      <point x="1180.0" y="12.0" type="line"/>
    </contour>
    <contour>
      <point x="510.0" y="1394.0" type="line"/>
      <point x="96.0" y="36.0" type="line"/>
      <point x="-83.0" y="12.0" type="line"/>
      <point x="-86.0" y="0.0" type="line"/>
      <point x="339.0" y="0.0" type="line"/>
      <point x="343.0" y="12.0" type="line"/>
      <point x="172.0" y="36.0" type="line"/>
      <point x="587.0" y="1394.0" type="line"/>
      <point x="765.0" y="1418.0" type="line"/>
      <point x="769.0" y="1430.0" type="line"/>
      <point x="343.0" y="1430.0" type="line"/>
      <point x="339.0" y="1418.0" type="line"/>
    </contour>
  </outline>
</glyph>
<glyph name="X" format="2">
  <advance width="1342"/>
  <unicode hex="0058"/>
  <anchor x="977.0" y="1430" name="UCtop"/>
  <anchor x="509.0" y="0" name="bottom"/>
  <outline>
    <contour>
      <point x="737.0" y="726.0" type="line"/>
      <point x="755.0" y="730.0" type="line"/>
      <point x="1418.0" y="1390.0" type="line"/>
      <point x="1593.0" y="1418.0" type="line"/>
      <point x="1597.0" y="1430.0" type="line"/>
      <point x="1212.0" y="1430.0" type="line"/>
      <point x="1208.0" y="1418.0" type="line"/>
      <point x="1372.0" y="1390.0" type="line"/>
      <point x="749.0" y="769.0" type="line"/>
      <point x="731.0" y="764.0" type="line"/>
      <point x="14.0" y="40.0" type="line"/>
      <point x="-161.0" y="12.0" type="line"/>
      <point x="-165.0" y="0.0" type="line"/>
      <point x="221.0" y="0.0" type="line"/>
      <point x="225.0" y="12.0" type="line"/>
      <point x="60.0" y="40.0" type="line"/>
    </contour>
    <contour>
      <point x="958.0" y="36.0" type="line"/>
      <point x="775.0" y="12.0" type="line"/>
      <point x="771.0" y="0.0" type="line"/>
      <point x="1196.0" y="0.0" type="line"/>
      <point x="1199.0" y="12.0" type="line"/>
      <point x="1034.0" y="36.0" type="line"/>
      <point x="773.0" y="768.0" type="line"/>
      <point x="770.0" y="776.0" type="line"/>
      <point x="551.0" y="1390.0" type="line"/>
      <point x="735.0" y="1418.0" type="line"/>
      <point x="739.0" y="1430.0" type="line"/>
      <point x="314.0" y="1430.0" type="line"/>
      <point x="311.0" y="1418.0" type="line"/>
      <point x="475.0" y="1390.0" type="line"/>
      <point x="713.0" y="724.0" type="line"/>
      <point x="717.0" y="714.0" type="line"/>
    </contour>
  </outline>
</glyph>
<glyph name="c" format="2">
  <advance width="752"/>
  <unicode hex="0063"/>
  <anchor x="548.0" y="1024" name="top"/>
  <anchor x="537.0" y="0" name="right"/>
  <anchor x="297.0" y="0" name="bottom"/>
  <outline>
    <contour>
      <point x="596" y="1019" type="curve" smooth="yes"/>
      <point x="654.0" y="1019.0"/>
      <point x="669" y="995.0"/>
      <point x="663" y="941" type="curve" smooth="yes"/>
      <point x="657" y="887"/>
      <point x="666" y="870.0"/>
      <point x="703" y="870" type="curve" smooth="yes"/>
      <point x="739" y="870"/>
      <point x="779" y="906"/>
      <point x="779" y="953" type="curve" smooth="yes"/>
      <point x="779" y="1003"/>
      <point x="737" y="1044"/>
      <point x="628" y="1044" type="curve" smooth="yes"/>
      <point x="310" y="1044"/>
      <point x="44" y="629"/>
      <point x="44" y="246" type="curve" smooth="yes"/>
      <point x="44" y="55"/>
      <point x="135" y="-20"/>
      <point x="281" y="-20" type="curve" smooth="yes"/>
      <point x="430" y="-20"/>
      <point x="533" y="55"/>
      <point x="669" y="395" type="curve"/>
      <point x="660" y="398" type="line"/>
      <point x="512" y="104"/>
      <point x="426" y="46"/>
      <point x="302" y="46" type="curve" smooth="yes"/>
      <point x="183" y="46"/>
      <point x="122" y="102"/>
      <point x="122" y="294" type="curve" smooth="yes"/>
      <point x="122" y="644"/>
      <point x="358" y="1019"/>
    </contour>
  </outline>
</glyph>
<glyph name="d" format="2">
  <advance width="945"/>
  <unicode hex="0064"/>
  <anchor x="787.0" y="1430" name="UCtop"/>
  <anchor x="1033.0" y="1464" name="right"/>
  <anchor x="311.0" y="0" name="bottom"/>
  <anchor x="854.0" y="1211" name="center"/>
  <outline>
    <contour>
      <point x="808.0" y="907.0" type="curve"/>
      <point x="820.0" y="920.0" type="line"/>
      <point x="776.0" y="1006.0"/>
      <point x="720.0" y="1044.0"/>
      <point x="639.0" y="1044.0" type="curve" smooth="yes"/>
      <point x="356.0" y="1044.0"/>
      <point x="-4.0" y="480.0"/>
      <point x="-4.0" y="137.0" type="curve" smooth="yes"/>
      <point x="-4.0" y="45.0"/>
      <point x="45.0" y="-20.0"/>
      <point x="157.0" y="-20.0" type="curve" smooth="yes"/>
      <point x="255.0" y="-20.0"/>
      <point x="351.0" y="37.0"/>
      <point x="660.0" y="456.0" type="curve"/>
      <point x="651.0" y="456.0" type="line"/>
      <point x="537.0" y="82.0" type="line" smooth="yes"/>
      <point x="510.0" y="-7.0"/>
      <point x="527.0" y="-20.0"/>
      <point x="573.0" y="-20.0" type="curve" smooth="yes"/>
      <point x="670.0" y="-20.0"/>
      <point x="777.0" y="59.0"/>
      <point x="925.0" y="281.0" type="curve"/>
      <point x="918.0" y="286.0" type="line"/>
      <point x="743.0" y="74.0"/>
      <point x="630.0" y="32.0"/>
      <point x="561.0" y="51.0" type="curve"/>
      <point x="584.0" y="-1.0" type="line"/>
      <point x="1039.0" y="1484.0" type="line"/>
      <point x="1026.0" y="1484.0" type="line"/>
      <point x="762.0" y="1436.0" type="line"/>
      <point x="757.0" y="1422.0" type="line"/>
      <point x="814.0" y="1412.0869565217392"/>
      <point x="905.0" y="1396.2608695652173"/>
      <point x="941.0" y="1390.0" type="curve"/>
      <point x="661.0" y="484.0" type="line"/>
      <point x="346.0" y="68.0"/>
      <point x="265.0" y="39.0"/>
      <point x="174.0" y="39.0" type="curve" smooth="yes"/>
      <point x="105.0" y="39.0"/>
      <point x="75.0" y="88.0"/>
      <point x="75.0" y="167.0" type="curve" smooth="yes"/>
      <point x="75.0" y="424.0"/>
      <point x="381.0" y="1014.0"/>
      <point x="642.0" y="1014.0" type="curve" smooth="yes"/>
      <point x="705.0" y="1014.0"/>
      <point x="763.0" y="990.0"/>
    </contour>
  </outline>
</glyph>
<glyph name="p" format="2">
  <advance width="975"/>
  <unicode hex="0070"/>
  <anchor x="648.0" y="1024" name="top"/>
  <anchor x="-9.0" y="-445" name="bottom"/>
  <outline>
    <contour>
      <point x="240.0" y="246.0" type="curve" smooth="yes"/>
      <point x="334.0" y="549.0" type="line"/>
      <point x="455.0" y="790.0"/>
      <point x="622.0" y="984.0"/>
      <point x="761.0" y="984.0" type="curve" smooth="yes"/>
      <point x="837.0" y="984.0"/>
      <point x="878.0" y="939.0"/>
      <point x="878.0" y="817.0" type="curve" smooth="yes"/>
      <point x="878.0" y="462.0"/>
      <point x="586.0" y="5.0"/>
      <point x="366.0" y="5.0" type="curve" smooth="yes"/>
      <point x="264.0" y="5.0"/>
      <point x="227.0" y="68.0"/>
      <point x="227.0" y="164.0" type="curve" smooth="yes"/>
      <point x="227.0" y="189.0"/>
      <point x="231.0" y="217.0"/>
    </contour>
    <contour>
      <point x="166.0" y="132.0" type="line"/>
      <point x="177.0" y="47.0"/>
      <point x="243.0" y="-20.0"/>
      <point x="356.0" y="-20.0" type="curve" smooth="yes"/>
      <point x="637.0" y="-20.0"/>
      <point x="960.0" y="480.0"/>
      <point x="960.0" y="841.0" type="curve" smooth="yes"/>
      <point x="960.0" y="989.0"/>
      <point x="897.0" y="1043.0"/>
      <point x="800.0" y="1043.0" type="curve" smooth="yes"/>
      <point x="661.0" y="1043.0"/>
      <point x="492.0" y="883.0"/>
      <point x="327.0" y="578.0" type="curve"/>
      <point x="341.0" y="578.0" type="line"/>
      <point x="479.0" y="1015.0" type="line"/>
      <point x="456.0" y="1029.0"/>
      <point x="432.0" y="1037.0"/>
      <point x="396.0" y="1037.0" type="curve" smooth="yes"/>
      <point x="301.0" y="1037.0"/>
      <point x="193.0" y="969.0"/>
      <point x="52.0" y="639.0" type="curve"/>
      <point x="61.0" y="635.0" type="line"/>
      <point x="215.0" y="929.0"/>
      <point x="312.0" y="967.0"/>
      <point x="353.0" y="967.0" type="curve" smooth="yes"/>
      <point x="380.0" y="967.0"/>
      <point x="393.0" y="954.0"/>
      <point x="379.0" y="910.0" type="curve" smooth="yes"/>
      <point x="-35.0" y="-417.0" type="line"/>
      <point x="-173.0" y="-435.0" type="line"/>
      <point x="-178.0" y="-445.0" type="line"/>
      <point x="186.0" y="-445.0" type="line"/>
      <point x="190.0" y="-435.0" type="line"/>
      <point x="34.0" y="-417.0" type="line"/>
      <point x="201.0" y="119.0" type="line"/>
    </contour>
  </outline>
</glyph>
<glyph name="s" format="2">
  <advance width="642"/>
  <unicode hex="0073"/>
  <anchor x="455.0" y="1024" name="top"/>
  <anchor x="214.0" y="0" name="bottom"/>
  <outline>
    <contour>
      <point x="81" y="145" type="curve"/>
      <point x="2" y="145"/>
      <point x="-27" y="116"/>
      <point x="-27" y="71" type="curve" smooth="yes"/>
      <point x="-27" y="16"/>
      <point x="18" y="-20"/>
      <point x="126" y="-20" type="curve" smooth="yes"/>
      <point x="336" y="-20"/>
      <point x="505" y="111"/>
      <point x="505" y="299" type="curve" smooth="yes"/>
      <point x="505" y="365"/>
      <point x="479" y="436"/>
      <point x="374" y="554" type="curve" smooth="yes"/>
      <point x="269" y="672"/>
      <point x="242" y="735"/>
      <point x="242" y="801" type="curve" smooth="yes"/>
      <point x="242" y="929"/>
      <point x="341" y="1008"/>
      <point x="471" y="1008" type="curve" smooth="yes"/>
      <point x="509" y="1008"/>
      <point x="529" y="1001"/>
      <point x="545" y="983" type="curve" smooth="yes"/>
      <point x="561" y="965.0"/>
      <point x="565" y="939"/>
      <point x="561" y="893" type="curve"/>
      <point x="634" y="893"/>
      <point x="665" y="916"/>
      <point x="665" y="961" type="curve" smooth="yes"/>
      <point x="665" y="1009"/>
      <point x="626" y="1044"/>
      <point x="515" y="1044" type="curve" smooth="yes"/>
      <point x="349" y="1044"/>
      <point x="186" y="928"/>
      <point x="186" y="750" type="curve" smooth="yes"/>
      <point x="186" y="676"/>
      <point x="224" y="594"/>
      <point x="323" y="484" type="curve" smooth="yes"/>
      <point x="422" y="374"/>
      <point x="449" y="317"/>
      <point x="449" y="260" type="curve" smooth="yes"/>
      <point x="449.0" y="103.0"/>
      <point x="347" y="25.0"/>
      <point x="182" y="25" type="curve" smooth="yes"/>
      <point x="142" y="25"/>
      <point x="113" y="35"/>
      <point x="98" y="56" type="curve" smooth="yes"/>
      <point x="83" y="77"/>
      <point x="78" y="108"/>
    </contour>
  </outline>
</glyph>
<glyph name="ordfeminine" format="2">
  <advance width="851"/>
  <unicode hex="00AA"/>
  <outline>
    <contour>
      <point x="200.0" y="577.0" type="line"/>
      <point x="703.0" y="577.0" type="line"/>
      <point x="717.0" y="622.0" type="line"/>
      <point x="213.0" y="622.0" type="line"/>
    </contour>
    <contour>
      <point x="622.0" y="843.0" type="line" smooth="yes"/>
      <point x="606.0" y="800.0"/>
      <point x="614.0" y="790.0"/>
      <point x="651.0" y="790.0" type="curve" smooth="yes"/>
      <point x="725.0" y="790.0"/>
      <point x="803.0" y="836.0"/>
      <point x="907.0" y="973.0" type="curve"/>
      <point x="898.0" y="981.0" type="line"/>
      <point x="775.0" y="851.0"/>
      <point x="694.0" y="825.0"/>
      <point x="644.0" y="837.0" type="curve"/>
      <point x="668.0" y="806.0" type="line"/>
      <point x="903.0" y="1430.0" type="line"/>
      <point x="843.0" y="1430.0" type="line"/>
      <point x="822.0" y="1375.0" type="line"/>
      <point x="723.0" y="1107.0" type="line"/>
      <point x="508.0" y="857.0"/>
      <point x="451.0" y="839.0"/>
      <point x="396.0" y="839.0" type="curve" smooth="yes"/>
      <point x="345.0" y="839.0"/>
      <point x="316.0" y="869.0"/>
      <point x="315.0" y="930.0" type="curve" smooth="yes"/>
      <point x="312.0" y="1078.0"/>
      <point x="531.0" y="1418.0"/>
      <point x="712.0" y="1418.0" type="curve" smooth="yes"/>
      <point x="756.0" y="1418.0"/>
      <point x="797.0" y="1403.0"/>
      <point x="829.0" y="1354.0" type="curve"/>
      <point x="839.0" y="1366.0" type="line"/>
      <point x="806.0" y="1419.0"/>
      <point x="766.0" y="1442.0"/>
      <point x="708.0" y="1442.0" type="curve" smooth="yes"/>
      <point x="505.0" y="1442.0"/>
      <point x="242.0" y="1120.0"/>
      <point x="245.0" y="909.0" type="curve" smooth="yes"/>
      <point x="246.0" y="848.0"/>
      <point x="282.0" y="790.0"/>
      <point x="364.0" y="790.0" type="curve" smooth="yes"/>
      <point x="435.0" y="790.0"/>
      <point x="511.0" y="824.0"/>
      <point x="725.0" y="1085.0" type="curve"/>
      <point x="712.0" y="1082.0" type="line"/>
    </contour>
  </outline>
</glyph>
<glyph name="uni00B5" format="2">
  <advance width="1056"/>
  <unicode hex="00B5"/>
  <outline>
    <contour>
      <point x="721.0" y="504.0" type="line"/>
      <point x="628.0" y="311.0"/>
      <point x="498.0" y="41.0"/>
      <point x="277.0" y="41.0" type="curve" smooth="yes"/>
      <point x="218.0" y="41.0"/>
      <point x="174.0" y="64.0"/>
      <point x="170.0" y="132.0" type="curve" smooth="yes"/>
      <point x="168.0" y="163.0"/>
      <point x="180.0" y="209.0"/>
      <point x="219.0" y="328.0" type="curve" smooth="yes"/>
      <point x="449.0" y="1024.0" type="line"/>
      <point x="379.0" y="1024.0" type="line"/>
      <point x="-110.0" y="-453.0" type="line"/>
      <point x="-101.0" y="-453.0" type="line"/>
      <point x="-9.0" y="-445.0" type="line"/>
      <point x="114.0" y="143.0" type="line"/>
      <point x="109.0" y="143.0" type="line"/>
      <point x="108.0" y="36.0"/>
      <point x="169.0" y="-20.0"/>
      <point x="259.0" y="-20.0" type="curve" smooth="yes"/>
      <point x="484.0" y="-20.0"/>
      <point x="614.0" y="222.0"/>
      <point x="732.0" y="508.0" type="curve"/>
      <point x="712.0" y="471.0" type="line"/>
      <point x="585.0" y="81.0" type="line" smooth="yes"/>
      <point x="556.0" y="-7.0"/>
      <point x="562.0" y="-20.0"/>
      <point x="608.0" y="-20.0" type="curve" smooth="yes"/>
      <point x="705.0" y="-20.0"/>
      <point x="812.0" y="59.0"/>
      <point x="960.0" y="281.0" type="curve"/>
      <point x="953.0" y="286.0" type="line"/>
      <point x="778.0" y="74.0"/>
      <point x="665.0" y="32.0"/>
      <point x="596.0" y="51.0" type="curve"/>
      <point x="625.0" y="6.0" type="line"/>
      <point x="964.0" y="1024.0" type="line"/>
      <point x="894.0" y="1024.0" type="line"/>
    </contour>
  </outline>
</glyph>
<glyph name="Iogonek" format="2">
  <advance width="561"/>
  <unicode hex="012E"/>
  <outline>
    <contour>
      <point x="510.0" y="1394.0" type="line"/>
      <point x="96.0" y="36.0" type="line"/>
      <point x="-83.0" y="12.0" type="line"/>
      <point x="-86.0" y="0.0" type="line"/>
      <point x="339.0" y="0.0" type="line"/>
      <point x="343.0" y="12.0" type="line"/>
      <point x="172.0" y="36.0" type="line"/>
      <point x="587.0" y="1394.0" type="line"/>
      <point x="765.0" y="1418.0" type="line"/>
      <point x="769.0" y="1430.0" type="line"/>
      <point x="343.0" y="1430.0" type="line"/>
      <point x="339.0" y="1418.0" type="line"/>
    </contour>
    <contour>
      <point x="-74.0" y="-347.0" type="curve" smooth="yes"/>
      <point x="-74.0" y="-299.0"/>
      <point x="-51.0" y="-234.0"/>
      <point x="69.0" y="-82.0" type="curve" smooth="yes"/>
      <point x="140.0" y="8.0" type="line"/>
      <point x="120.0" y="8.0" type="line"/>
      <point x="6.0" y="-124.0" type="line" smooth="yes"/>
      <point x="-109.0" y="-255.0"/>
      <point x="-135.0" y="-309.0"/>
      <point x="-135.0" y="-364.0" type="curve" smooth="yes"/>
      <point x="-135.0" y="-422.0"/>
      <point x="-99.0" y="-465.0"/>
      <point x="-24.0" y="-465.0" type="curve" smooth="yes"/>
      <point x="36.0" y="-465.0"/>
      <point x="76.0" y="-434.0"/>
      <point x="134.0" y="-359.0" type="curve"/>
      <point x="126.0" y="-351.0" type="line"/>
      <point x="83.0" y="-395.0"/>
      <point x="43.0" y="-414.0"/>
      <point x="5.0" y="-414.0" type="curve" smooth="yes"/>
      <point x="-53.0" y="-414.0"/>
      <point x="-74.0" y="-388.0"/>
    </contour>
  </outline>
</glyph>
<glyph name="uni0162" format="2">
  <advance width="1252"/>
  <unicode hex="0162"/>
  <outline>
    <contour>
      <point x="1403.0" y="1402.0" type="line"/>
      <point x="1356.0" y="1419.0" type="line"/>
      <point x="1362.0" y="1050.0" type="line"/>
      <point x="1380.0" y="1050.0" type="line"/>
      <point x="1458.0" y="1498.0" type="line"/>
      <point x="1452.0" y="1498.0" type="line"/>
      <point x="1354.0" y="1422.0" type="line"/>
      <point x="1387.0" y="1430.0" type="line"/>
      <point x="414.0" y="1430.0" type="line"/>
      <point x="439.0" y="1422.0" type="line"/>
      <point x="386.0" y="1498.0" type="line"/>
      <point x="381.0" y="1498.0" type="line"/>
      <point x="208.0" y="1053.0" type="line"/>
      <point x="224.0" y="1047.0" type="line"/>
      <point x="444.0" y="1419.0" type="line"/>
      <point x="387.0" y="1402.0" type="line"/>
    </contour>
    <contour>
      <point x="866.0" y="1416.0" type="line"/>
      <point x="445.0" y="36.0" type="line"/>
      <point x="266.0" y="12.0" type="line"/>
      <point x="263.0" y="0.0" type="line"/>
      <point x="688.0" y="0.0" type="line"/>
      <point x="692.0" y="12.0" type="line"/>
      <point x="521.0" y="36.0" type="line"/>
      <point x="943.0" y="1416.0" type="line"/>
    </contour>
    <contour>
      <point x="279.0" y="-465.0" type="curve" smooth="yes"/>
      <point x="416.0" y="-465.0"/>
      <point x="514.0" y="-381.0"/>
      <point x="514.0" y="-278.0" type="curve" smooth="yes"/>
      <point x="514.0" y="-227.0"/>
      <point x="481.0" y="-176.0"/>
      <point x="367.0" y="-134.0" type="curve"/>
      <point x="367.0" y="-151.0" type="line"/>
      <point x="503.0" y="0.0" type="line"/>
      <point x="476.0" y="0.0" type="line"/>
      <point x="311.0" y="-177.0" type="line"/>
      <point x="311.0" y="-181.0" type="line"/>
      <point x="425.0" y="-219.0"/>
      <point x="463.0" y="-262.0"/>
      <point x="463.0" y="-310.0" type="curve" smooth="yes"/>
      <point x="463.0" y="-377.0"/>
      <point x="402.0" y="-434.0"/>
      <point x="332.0" y="-434.0" type="curve" smooth="yes"/>
      <point x="259.0" y="-434.0"/>
      <point x="241.0" y="-373.0"/>
      <point x="226.0" y="-373.0" type="curve" smooth="yes"/>
      <point x="202.0" y="-373.0"/>
      <point x="186.0" y="-391.0"/>
      <point x="186.0" y="-412.0" type="curve" smooth="yes"/>
      <point x="186.0" y="-441.0"/>
      <point x="210.0" y="-465.0"/>
    </contour>
  </outline>
</glyph>
<glyph name="uni030A" format="2">
  <unicode hex="030A"/>
  <anchor x="157" y="1024.0" name="_top"/>
  <anchor x="291" y="1464.0" name="top"/>
  <outline>
    <contour>
      <point x="265.0" y="1482.0" type="curve" smooth="yes"/>
      <point x="144.0" y="1482.0"/>
      <point x="54.0" y="1390.0"/>
      <point x="54.0" y="1274.0" type="curve" smooth="yes"/>
      <point x="54.0" y="1182.0"/>
      <point x="123.0" y="1120.0"/>
      <point x="218.0" y="1120.0" type="curve" smooth="yes"/>
      <point x="339.0" y="1120.0"/>
      <point x="429.0" y="1212.0"/>
      <point x="429.0" y="1328.0" type="curve" smooth="yes"/>
      <point x="429.0" y="1420.0"/>
      <point x="360.0" y="1482.0"/>
    </contour>
    <contour>
      <point x="224.0" y="1156.0" type="curve" smooth="yes"/>
      <point x="147.0" y="1156.0"/>
      <point x="95.0" y="1198.0"/>
      <point x="95.0" y="1276.0" type="curve" smooth="yes"/>
      <point x="95.0" y="1360.0"/>
      <point x="151.0" y="1446.0"/>
      <point x="259.0" y="1446.0" type="curve" smooth="yes"/>
      <point x="336.0" y="1446.0"/>
      <point x="388.0" y="1404.0"/>
      <point x="388.0" y="1326.0" type="curve" smooth="yes"/>
      <point x="388.0" y="1242.0"/>
      <point x="332.0" y="1156.0"/>
    </contour>
  </outline>
</glyph>
<glyph name="uni031B" format="2">
  <unicode hex="031B"/>
  <anchor x="157" y="1024.0" name="_horn"/>
  <outline>
    <contour>
      <point x="448.0" y="1228.0" type="curve" smooth="yes"/>
      <point x="448.0" y="1285.0"/>
      <point x="422.0" y="1306.0"/>
      <point x="389.0" y="1306.0" type="curve" smooth="yes"/>
      <point x="354.0" y="1306.0"/>
      <point x="326.0" y="1277.0"/>
      <point x="326.0" y="1253.0" type="curve" smooth="yes"/>
      <point x="326.0" y="1246.0"/>
      <point x="356.0" y="1207.0"/>
      <point x="356.0" y="1159.0" type="curve" smooth="yes"/>
      <point x="356.0" y="1084.0"/>
      <point x="299.0" y="1024.0"/>
      <point x="187.0" y="1024.0" type="curve" smooth="yes"/>
      <point x="162.0" y="1024.0" type="line"/>
      <point x="153.0" y="995.0" type="line"/>
      <point x="188.0" y="995.0" type="line" smooth="yes"/>
      <point x="357.0" y="995.0"/>
      <point x="448.0" y="1096.0"/>
    </contour>
  </outline>
</glyph>
<glyph name="endash" format="2">
  <advance width="898"/>
  <unicode hex="2013"/>
  <outline>
    <contour>
      <point x="70.0" y="548.0" type="line"/>
      <point x="54.0" y="496.0" type="line"/>
      <point x="833.0" y="496.0" type="line"/>
      <point x="849.0" y="548.0" type="line"/>
    </contour>
  </outline>
</glyph>
<glyph name="acutecomb.case" format="2">
  <anchor x="281" y="1430.0" name="_UCtop"/>
  <anchor x="437" y="1941.0" name="UCtop"/>
  <outline>
    <contour>
      <point x="281.0" y="1544.0" type="line"/>
      <point x="303.0" y="1544.0" type="line"/>
      <point x="672.0" y="1864.0" type="line"/>
      <point x="672.0" y="1870.0" type="line"/>
      <point x="543.0" y="1870.0" type="line"/>
    </contour>
  </outline>
</glyph>
<glyph name="caroncomb.alt" format="2">
  <anchor x="291" y="1464.0" name="_right"/>
  <outline>
    <contour>
      <point x="341.0" y="1079.0" type="line"/>
      <point x="362.0" y="1079.0" type="line"/>
      <point x="627.0" y="1454.0" type="line"/>
      <point x="627.0" y="1464.0" type="line"/>
      <point x="528.0" y="1464.0" type="line"/>
    </contour>
  </outline>
</glyph>
<glyph name="nine.lf" format="2">
  <advance width="1030"/>
  <outline>
    <contour>
      <point x="30.0" y="-46.0" type="line"/>
      <point x="813.0" y="183.0"/>
      <point x="1021.0" y="567.0"/>
      <point x="1021.0" y="972.0" type="curve" smooth="yes"/>
      <point x="1021.0" y="1255.0"/>
      <point x="879.0" y="1450.0"/>
      <point x="653.0" y="1450.0" type="curve" smooth="yes"/>
      <point x="389.0" y="1450.0"/>
      <point x="214.0" y="1230.0"/>
      <point x="214.0" y="981.0" type="curve" smooth="yes"/>
      <point x="214.0" y="766.0"/>
      <point x="355.0" y="642.0"/>
      <point x="554.0" y="642.0" type="curve" smooth="yes"/>
      <point x="626.0" y="642.0"/>
      <point x="689.0" y="661.0"/>
      <point x="940.0" y="814.0" type="curve"/>
      <point x="944.0" y="843.0" type="line"/>
      <point x="803.5670864531553" y="752.0722142502444"/>
      <point x="672.0051545022217" y="701.0"/>
      <point x="574.0" y="701.0" type="curve" smooth="yes"/>
      <point x="403.0" y="701.0"/>
      <point x="283.0" y="817.0"/>
      <point x="283.0" y="1016.0" type="curve" smooth="yes"/>
      <point x="283.0" y="1256.0"/>
      <point x="429.0" y="1425.0"/>
      <point x="649.0" y="1425.0" type="curve" smooth="yes"/>
      <point x="841.0" y="1425.0"/>
      <point x="944.0" y="1255.0"/>
      <point x="944.0" y="964.0" type="curve" smooth="yes"/>
      <point x="944.0" y="573.0"/>
      <point x="757.0" y="206.0"/>
      <point x="23.0" y="-26.0" type="curve"/>
    </contour>
  </outline>
</glyph>
<glyph name="numbersign.lf" format="2">
  <advance width="1258"/>
  <outline>
    <contour>
      <point x="904.0" y="1430.0" type="line"/>
      <point x="859.0" y="1430.0" type="line"/>
      <point x="120.0" y="0.0" type="line"/>
      <point x="164.0" y="0.0" type="line"/>
    </contour>
    <contour>
      <point x="1260.0" y="1430.0" type="line"/>
      <point x="1214.0" y="1430.0" type="line"/>
      <point x="475.0" y="0.0" type="line"/>
      <point x="521.0" y="0.0" type="line"/>
    </contour>
    <contour>
      <point x="1302.0" y="899.0" type="line"/>
      <point x="1315.0" y="941.0" type="line"/>
      <point x="291.0" y="941.0" type="line"/>
      <point x="278.0" y="899.0" type="line"/>
    </contour>
    <contour>
      <point x="1093.0" y="495.0" type="line"/>
      <point x="1106.0" y="537.0" type="line"/>
      <point x="82.0" y="537.0" type="line"/>
      <point x="69.0" y="495.0" type="line"/>
    </contour>
  </outline>
</glyph>
<glyph name="tildecomb.case" format="2">
  <anchor x="281" y="1430.0" name="_UCtop"/>
  <anchor x="388" y="1782.0" name="UCtop"/>
  <outline>
    <contour>
      <point x="677.0" y="1846.0" type="curve"/>
      <point x="651.0" y="1846.0" type="line"/>
      <point x="572.0" y="1676.0"/>
      <point x="515.0" y="1626.0"/>
      <point x="472.0" y="1626.0" type="curve" smooth="yes"/>
      <point x="388.0" y="1626.0"/>
      <point x="371.0" y="1856.0"/>
      <point x="261.0" y="1856.0" type="curve" smooth="yes"/>
      <point x="211.0" y="1856.0"/>
      <point x="142.0" y="1817.0"/>
      <point x="32.0" y="1568.0" type="curve"/>
      <point x="58.0" y="1568.0" type="line"/>
      <point x="137.0" y="1738.0"/>
      <point x="194.0" y="1788.0"/>
      <point x="237.0" y="1788.0" type="curve" smooth="yes"/>
      <point x="321.0" y="1788.0"/>
      <point x="338.0" y="1558.0"/>
      <point x="448.0" y="1558.0" type="curve" smooth="yes"/>
      <point x="498.0" y="1558.0"/>
      <point x="567.0" y="1597.0"/>
    </contour>
  </outline>
</glyph>
<glyph name="uni0306.case" format="2">
  <anchor x="281" y="1430.0" name="_UCtop"/>
  <anchor x="415" y="1870.0" name="UCtop"/>
  <outline>
    <contour>
      <point x="326.0" y="1608.0" type="curve" smooth="yes"/>
      <point x="195.0" y="1608.0"/>
      <point x="163.0" y="1663.0"/>
      <point x="166.0" y="1870.0" type="curve"/>
      <point x="143.0" y="1870.0" type="line"/>
      <point x="124.0" y="1598.0"/>
      <point x="165.0" y="1534.0"/>
      <point x="322.0" y="1534.0" type="curve" smooth="yes"/>
      <point x="462.0" y="1534.0"/>
      <point x="542.0" y="1598.0"/>
      <point x="689.0" y="1870.0" type="curve"/>
      <point x="660.0" y="1870.0" type="line"/>
      <point x="561.0" y="1679.0"/>
      <point x="460.0" y="1608.0"/>
    </contour>
  </outline>
</glyph>
<glyph name="uni0306_tildecomb" format="2">
  <anchor x="157" y="1024.0" name="_top"/>
  <outline>
    <contour>
      <point x="198.0" y="1170.0" type="curve" smooth="yes"/>
      <point x="85.0" y="1170.0"/>
      <point x="19.0" y="1208.0"/>
      <point x="19.0" y="1336.0" type="curve"/>
      <point x="-1.0" y="1336.0" type="line"/>
      <point x="-6.0" y="1143.0"/>
      <point x="45.0" y="1097.0"/>
      <point x="188.0" y="1097.0" type="curve" smooth="yes"/>
      <point x="307.0" y="1097.0"/>
      <point x="386.0" y="1143.0"/>
      <point x="505.0" y="1336.0" type="curve"/>
      <point x="479.0" y="1336.0" type="line"/>
      <point x="401.0" y="1208.0"/>
      <point x="311.0" y="1170.0"/>
    </contour>
    <contour>
      <point x="570.0" y="1598.0" type="curve"/>
      <point x="549.0" y="1598.0" type="line"/>
      <point x="483.0" y="1483.0"/>
      <point x="445.0" y="1451.0"/>
      <point x="409.0" y="1451.0" type="curve" smooth="yes"/>
      <point x="340.0" y="1451.0"/>
      <point x="271.0" y="1603.0"/>
      <point x="193.0" y="1603.0" type="curve" smooth="yes"/>
      <point x="141.0" y="1603.0"/>
      <point x="100.0" y="1568.0"/>
      <point x="10.0" y="1390.0" type="curve"/>
      <point x="31.0" y="1390.0" type="line"/>
      <point x="97.0" y="1505.0"/>
      <point x="135.0" y="1537.0"/>
      <point x="171.0" y="1537.0" type="curve" smooth="yes"/>
      <point x="240.0" y="1537.0"/>
      <point x="309.0" y="1385.0"/>
      <point x="387.0" y="1385.0" type="curve" smooth="yes"/>
      <point x="439.0" y="1385.0"/>
      <point x="480.0" y="1420.0"/>
    </contour>
  </outline>
</glyph>
<glyph name="uni0307.case" format="2">
  <anchor x="281" y="1430.0" name="_UCtop"/>
  <anchor x="388" y="1782.0" name="UCtop"/>
  <anchor x="365" y="1707.0" name="_mid"/>
  <outline>
    <contour>
      <point x="352.0" y="1632.0" type="curve"/>
      <point x="404.0" y="1632.0"/>
      <point x="439.0" y="1675.0"/>
      <point x="439.0" y="1719.0" type="curve"/>
      <point x="439.0" y="1753.0"/>
      <point x="417.0" y="1782.0"/>
      <point x="378.0" y="1782.0" type="curve"/>
      <point x="326.0" y="1782.0"/>
      <point x="291.0" y="1739.0"/>
      <point x="291.0" y="1695.0" type="curve"/>
      <point x="291.0" y="1661.0"/>
      <point x="313.0" y="1632.0"/>
    </contour>
  </outline>
</glyph>
<glyph name="uni0308.case" format="2">
  <anchor x="281" y="1430.0" name="_UCtop"/>
  <anchor x="388" y="1782.0" name="UCtop"/>
  <outline>
    <contour>
      <point x="159.0" y="1632.0" type="curve" smooth="yes"/>
      <point x="211.0" y="1632.0"/>
      <point x="246.0" y="1675.0"/>
      <point x="246.0" y="1719.0" type="curve" smooth="yes"/>
      <point x="246.0" y="1753.0"/>
      <point x="224.0" y="1782.0"/>
      <point x="185.0" y="1782.0" type="curve" smooth="yes"/>
      <point x="133.0" y="1782.0"/>
      <point x="98.0" y="1739.0"/>
      <point x="98.0" y="1695.0" type="curve" smooth="yes"/>
      <point x="98.0" y="1661.0"/>
      <point x="120.0" y="1632.0"/>
    </contour>
    <contour>
      <point x="544.0" y="1632.0" type="curve" smooth="yes"/>
      <point x="596.0" y="1632.0"/>
      <point x="631.0" y="1675.0"/>
      <point x="631.0" y="1719.0" type="curve" smooth="yes"/>
      <point x="631.0" y="1753.0"/>
      <point x="609.0" y="1782.0"/>
      <point x="570.0" y="1782.0" type="curve" smooth="yes"/>
      <point x="518.0" y="1782.0"/>
      <point x="483.0" y="1739.0"/>
      <point x="483.0" y="1695.0" type="curve" smooth="yes"/>
      <point x="483.0" y="1661.0"/>
      <point x="505.0" y="1632.0"/>
    </contour>
  </outline>
</glyph>
<glyph name="uni030F.case" format="2">
  <anchor x="281" y="1430.0" name="_UCtop"/>
  <anchor x="415" y="1870.0" name="UCtop"/>
  <outline>
    <contour>
      <point x="241.0" y="1544.0" type="line"/>
      <point x="80.0" y="1870.0" type="line"/>
      <point x="-33.0" y="1870.0" type="line"/>
      <point x="-33.0" y="1864.0" type="line"/>
      <point x="211.0" y="1544.0" type="line"/>
    </contour>
    <contour>
      <point x="466.0" y="1544.0" type="line"/>
      <point x="412.0" y="1870.0" type="line"/>
      <point x="305.0" y="1870.0" type="line"/>
      <point x="305.0" y="1864.0" type="line"/>
      <point x="443.0" y="1544.0" type="line"/>
    </contour>
  </outline>
</glyph>
<glyph name="uni0311.case" format="2">
  <anchor x="281" y="1430.0" name="_UCtop"/>
  <anchor x="415" y="1870.0" name="UCtop"/>
  <outline>
    <contour>
      <point x="398.0" y="1802.0" type="curve" smooth="yes"/>
      <point x="522.0" y="1802.0"/>
      <point x="573.0" y="1729.0"/>
      <point x="566.0" y="1544.0" type="curve"/>
      <point x="589.0" y="1544.0" type="line"/>
      <point x="608.0" y="1816.0"/>
      <point x="567.0" y="1880.0"/>
      <point x="404.0" y="1880.0" type="curve" smooth="yes"/>
      <point x="270.0" y="1880.0"/>
      <point x="190.0" y="1816.0"/>
      <point x="43.0" y="1544.0" type="curve"/>
      <point x="72.0" y="1544.0" type="line"/>
      <point x="172.0" y="1727.0"/>
      <point x="273.0" y="1802.0"/>
    </contour>
  </outline>
</glyph>
